<?xml version="1.0" encoding="UTF-8" standalone="no"?>
<!DOCTYPE svg PUBLIC "-//W3C//DTD SVG 1.1//EN"
 "http://www.w3.org/Graphics/SVG/1.1/DTD/svg11.dtd">
<!-- Generated by graphviz version 2.40.1 (20161225.0304)
 -->
<!-- Title: dependencies Pages: 1 -->
<svg width="697pt" height="211pt"
 viewBox="0.00 0.00 697.00 211.00" xmlns="http://www.w3.org/2000/svg" xmlns:xlink="http://www.w3.org/1999/xlink">
<g id="graph0" class="graph" transform="scale(1 1) rotate(0) translate(4 207)">
<title>dependencies</title>
<polygon fill="#ffffff" stroke="transparent" points="-4,4 -4,-207 693,-207 693,4 -4,4"/>
<text text-anchor="start" x="323.5091" y="-42.4" font-family="sans-serif" font-weight="bold" font-size="14.00" fill="#000000">Legend</text>
<polygon fill="#ffffb3" stroke="transparent" points="110.5,-10 110.5,-30 130.5,-30 130.5,-10 110.5,-10"/>
<text text-anchor="start" x="134.129" y="-15.4" font-family="sans-serif" font-size="14.00" fill="#000000"> &#160;Declarations</text>
<polygon fill="#8dd3c7" stroke="transparent" points="223.5,-10 223.5,-30 243.5,-30 243.5,-10 223.5,-10"/>
<text text-anchor="start" x="247.2251" y="-15.4" font-family="sans-serif" font-size="14.00" fill="#000000"> &#160;Module</text>
<polygon fill="#80b1d3" stroke="transparent" points="309.5,-10 309.5,-30 329.5,-30 329.5,-10 309.5,-10"/>
<text text-anchor="start" x="333.2812" y="-15.4" font-family="sans-serif" font-size="14.00" fill="#000000"> &#160;Bootstrap</text>
<polygon fill="#fdb462" stroke="transparent" points="406.5,-10 406.5,-30 426.5,-30 426.5,-10 406.5,-10"/>
<text text-anchor="start" x="430.1732" y="-15.4" font-family="sans-serif" font-size="14.00" fill="#000000"> &#160;Providers</text>
<polygon fill="#fb8072" stroke="transparent" points="502.5,-10 502.5,-30 522.5,-30 522.5,-10 502.5,-10"/>
<text text-anchor="start" x="526.2258" y="-15.4" font-family="sans-serif" font-size="14.00" fill="#000000"> &#160;Exports</text>
<g id="clust1" class="cluster">
<title>cluster_PrestationModule</title>
<polygon fill="none" stroke="#000000" stroke-dasharray="1,5" points="8,-70 8,-195 681,-195 681,-70 8,-70"/>
</g>
<g id="clust2" class="cluster">
<title>cluster_PrestationModule_declarations</title>
<polygon fill="none" stroke="#000000" points="317,-78 317,-130 673,-130 673,-78 317,-78"/>
</g>
<g id="clust5" class="cluster">
<title>cluster_PrestationModule_imports</title>
<polygon fill="none" stroke="#000000" points="16,-78 16,-130 309,-130 309,-78 16,-78"/>
</g>
<!-- PrestationItemComponent -->
<g id="node1" class="node">
<title>PrestationItemComponent</title>
<polygon fill="#ffffb3" stroke="#000000" points="665.4776,-122 502.5224,-122 502.5224,-86 665.4776,-86 665.4776,-122"/>
<text text-anchor="middle" x="584" y="-99.8" font-family="Times,serif" font-size="14.00" fill="#000000">PrestationItemComponent</text>
</g>
<!-- PrestationModule -->
<g id="node3" class="node">
<title>PrestationModule</title>
<polygon fill="#8dd3c7" stroke="#000000" points="370.5395,-187 367.5395,-191 346.5395,-191 343.5395,-187 255.4605,-187 255.4605,-151 370.5395,-151 370.5395,-187"/>
<text text-anchor="middle" x="313" y="-164.8" font-family="Times,serif" font-size="14.00" fill="#000000">PrestationModule</text>
</g>
<!-- PrestationItemComponent&#45;&gt;PrestationModule -->
<g id="edge1" class="edge">
<title>PrestationItemComponent&#45;&gt;PrestationModule</title>
<path fill="none" stroke="#000000" d="M584,-122.1061C584,-141.3391 584,-169 584,-169 584,-169 380.8039,-169 380.8039,-169"/>
<polygon fill="#000000" stroke="#000000" points="380.8039,-165.5001 370.8039,-169 380.8039,-172.5001 380.8039,-165.5001"/>
</g>
<!-- PrestationListComponent -->
<g id="node2" class="node">
<title>PrestationListComponent</title>
<polygon fill="#ffffb3" stroke="#000000" points="484.5996,-122 325.4004,-122 325.4004,-86 484.5996,-86 484.5996,-122"/>
<text text-anchor="middle" x="405" y="-99.8" font-family="Times,serif" font-size="14.00" fill="#000000">PrestationListComponent</text>
</g>
<!-- PrestationListComponent&#45;&gt;PrestationModule -->
<g id="edge2" class="edge">
<title>PrestationListComponent&#45;&gt;PrestationModule</title>
<path fill="none" stroke="#000000" d="M348.1098,-122.1061C348.1098,-122.1061 348.1098,-140.991 348.1098,-140.991"/>
<polygon fill="#000000" stroke="#000000" points="344.6098,-140.9909 348.1098,-150.991 351.6098,-140.991 344.6098,-140.9909"/>
</g>
<!-- PrestationRoutingModule -->
<g id="node4" class="node">
<title>PrestationRoutingModule</title>
<polygon fill="#8dd3c7" stroke="#000000" points="301.1568,-122 298.1568,-126 277.1568,-126 274.1568,-122 140.8432,-122 140.8432,-86 301.1568,-86 301.1568,-122"/>
<text text-anchor="middle" x="221" y="-99.8" font-family="Times,serif" font-size="14.00" fill="#000000">PrestationRoutingModule</text>
</g>
<!-- PrestationRoutingModule&#45;&gt;PrestationModule -->
<g id="edge3" class="edge">
<title>PrestationRoutingModule&#45;&gt;PrestationModule</title>
<path fill="none" stroke="#000000" d="M278.2795,-122.1061C278.2795,-122.1061 278.2795,-140.991 278.2795,-140.991"/>
<polygon fill="#000000" stroke="#000000" points="274.7795,-140.9909 278.2795,-150.991 281.7795,-140.991 274.7795,-140.9909"/>
</g>
<!-- SharedModule -->
<g id="node5" class="node">
<title>SharedModule</title>
<polygon fill="#8dd3c7" stroke="#000000" points="122.4231,-122 119.4231,-126 98.4231,-126 95.4231,-122 23.5769,-122 23.5769,-86 122.4231,-86 122.4231,-122"/>
<text text-anchor="middle" x="73" y="-99.8" font-family="Times,serif" font-size="14.00" fill="#000000">SharedModule</text>
</g>
<!-- SharedModule&#45;&gt;PrestationModule -->
<g id="edge4" class="edge">
<title>SharedModule&#45;&gt;PrestationModule</title>
<path fill="none" stroke="#000000" d="M73,-122.1061C73,-141.3391 73,-169 73,-169 73,-169 245.2086,-169 245.2086,-169"/>
<polygon fill="#000000" stroke="#000000" points="245.2086,-172.5001 255.2086,-169 245.2086,-165.5001 245.2086,-172.5001"/>
</g>
</g>
</svg>
