<?xml version="1.0" encoding="UTF-8" standalone="no"?>
<!DOCTYPE svg PUBLIC "-//W3C//DTD SVG 1.1//EN"
 "http://www.w3.org/Graphics/SVG/1.1/DTD/svg11.dtd">
<!-- Generated by graphviz version 2.40.1 (20161225.0304)
 -->
<!-- Title: dependencies Pages: 1 -->
<svg width="504pt" height="284pt"
 viewBox="0.00 0.00 504.00 284.00" xmlns="http://www.w3.org/2000/svg" xmlns:xlink="http://www.w3.org/1999/xlink">
<g id="graph0" class="graph" transform="scale(1 1) rotate(0) translate(4 280)">
<title>dependencies</title>
<polygon fill="#ffffff" stroke="transparent" points="-4,4 -4,-280 500,-280 500,4 -4,4"/>
<text text-anchor="start" x="227.0091" y="-42.4" font-family="sans-serif" font-weight="bold" font-size="14.00" fill="#000000">Legend</text>
<polygon fill="#ffffb3" stroke="transparent" points="14,-10 14,-30 34,-30 34,-10 14,-10"/>
<text text-anchor="start" x="37.629" y="-15.4" font-family="sans-serif" font-size="14.00" fill="#000000"> &#160;Declarations</text>
<polygon fill="#8dd3c7" stroke="transparent" points="127,-10 127,-30 147,-30 147,-10 127,-10"/>
<text text-anchor="start" x="150.7251" y="-15.4" font-family="sans-serif" font-size="14.00" fill="#000000"> &#160;Module</text>
<polygon fill="#80b1d3" stroke="transparent" points="213,-10 213,-30 233,-30 233,-10 213,-10"/>
<text text-anchor="start" x="236.7812" y="-15.4" font-family="sans-serif" font-size="14.00" fill="#000000"> &#160;Bootstrap</text>
<polygon fill="#fdb462" stroke="transparent" points="310,-10 310,-30 330,-30 330,-10 310,-10"/>
<text text-anchor="start" x="333.6732" y="-15.4" font-family="sans-serif" font-size="14.00" fill="#000000"> &#160;Providers</text>
<polygon fill="#fb8072" stroke="transparent" points="406,-10 406,-30 426,-30 426,-10 406,-10"/>
<text text-anchor="start" x="429.7258" y="-15.4" font-family="sans-serif" font-size="14.00" fill="#000000"> &#160;Exports</text>
<g id="clust1" class="cluster">
<title>cluster_SharedModule</title>
<polygon fill="none" stroke="#000000" stroke-dasharray="1,5" points="27,-70 27,-268 469,-268 469,-70 27,-70"/>
</g>
<g id="clust2" class="cluster">
<title>cluster_SharedModule_declarations</title>
<polygon fill="none" stroke="#000000" points="40,-78 40,-130 456,-130 456,-78 40,-78"/>
</g>
<g id="clust7" class="cluster">
<title>cluster_SharedModule_exports</title>
<polygon fill="none" stroke="#000000" points="35,-208 35,-260 461,-260 461,-208 35,-208"/>
</g>
<!-- TableButtonComponent -->
<g id="node1" class="node">
<title>TableButtonComponent</title>
<polygon fill="#ffffb3" stroke="#000000" points="447.8229,-122 296.1771,-122 296.1771,-86 447.8229,-86 447.8229,-122"/>
<text text-anchor="middle" x="372" y="-99.8" font-family="Times,serif" font-size="14.00" fill="#000000">TableButtonComponent</text>
</g>
<!-- SharedModule -->
<g id="node4" class="node">
<title>SharedModule</title>
<polygon fill="#8dd3c7" stroke="#000000" points="271.4231,-187 268.4231,-191 247.4231,-191 244.4231,-187 172.5769,-187 172.5769,-151 271.4231,-151 271.4231,-187"/>
<text text-anchor="middle" x="222" y="-164.8" font-family="Times,serif" font-size="14.00" fill="#000000">SharedModule</text>
</g>
<!-- TableButtonComponent&#45;&gt;SharedModule -->
<g id="edge1" class="edge">
<title>TableButtonComponent&#45;&gt;SharedModule</title>
<path fill="none" stroke="#000000" d="M397.9704,-122.0225C397.9704,-139.3734 397.9704,-163 397.9704,-163 397.9704,-163 281.4859,-163 281.4859,-163"/>
<polygon fill="#000000" stroke="#000000" points="281.4859,-159.5001 271.4859,-163 281.4858,-166.5001 281.4859,-159.5001"/>
</g>
<!-- TableComponent -->
<g id="node2" class="node">
<title>TableComponent</title>
<polygon fill="#ffffb3" stroke="#000000" points="278.705,-122 165.295,-122 165.295,-86 278.705,-86 278.705,-122"/>
<text text-anchor="middle" x="222" y="-99.8" font-family="Times,serif" font-size="14.00" fill="#000000">TableComponent</text>
</g>
<!-- TableComponent&#45;&gt;SharedModule -->
<g id="edge2" class="edge">
<title>TableComponent&#45;&gt;SharedModule</title>
<path fill="none" stroke="#000000" d="M222,-122.1061C222,-122.1061 222,-140.991 222,-140.991"/>
<polygon fill="#000000" stroke="#000000" points="218.5001,-140.9909 222,-150.991 225.5001,-140.991 218.5001,-140.9909"/>
</g>
<!-- TotalPricePipe -->
<g id="node3" class="node">
<title>TotalPricePipe</title>
<polygon fill="#ffffb3" stroke="#000000" points="147.6994,-122 48.3006,-122 48.3006,-86 147.6994,-86 147.6994,-122"/>
<text text-anchor="middle" x="98" y="-99.8" font-family="Times,serif" font-size="14.00" fill="#000000">TotalPricePipe</text>
</g>
<!-- TotalPricePipe&#45;&gt;SharedModule -->
<g id="edge3" class="edge">
<title>TotalPricePipe&#45;&gt;SharedModule</title>
<path fill="none" stroke="#000000" d="M113.0332,-122.0225C113.0332,-139.3734 113.0332,-163 113.0332,-163 113.0332,-163 162.6178,-163 162.6178,-163"/>
<polygon fill="#000000" stroke="#000000" points="162.6178,-166.5001 172.6178,-163 162.6177,-159.5001 162.6178,-166.5001"/>
</g>
<!-- TableButtonComponent  -->
<g id="node5" class="node">
<title>TableButtonComponent </title>
<polygon fill="#fb8072" stroke="#000000" points="453.3227,-252 298.6773,-252 298.6773,-216 453.3227,-216 453.3227,-252"/>
<text text-anchor="middle" x="376" y="-229.8" font-family="Times,serif" font-size="14.00" fill="#000000">TableButtonComponent </text>
</g>
<!-- SharedModule&#45;&gt;TableButtonComponent  -->
<g id="edge4" class="edge">
<title>SharedModule&#45;&gt;TableButtonComponent </title>
<path fill="none" stroke="#000000" stroke-dasharray="5,2" d="M271.5466,-175C306.9245,-175 348.2796,-175 348.2796,-175 348.2796,-175 348.2796,-205.9775 348.2796,-205.9775"/>
<polygon fill="#000000" stroke="#000000" points="344.7797,-205.9774 348.2796,-215.9775 351.7797,-205.9775 344.7797,-205.9774"/>
</g>
<!-- TableComponent  -->
<g id="node6" class="node">
<title>TableComponent </title>
<polygon fill="#fb8072" stroke="#000000" points="280.2052,-252 163.7948,-252 163.7948,-216 280.2052,-216 280.2052,-252"/>
<text text-anchor="middle" x="222" y="-229.8" font-family="Times,serif" font-size="14.00" fill="#000000">TableComponent </text>
</g>
<!-- SharedModule&#45;&gt;TableComponent  -->
<g id="edge5" class="edge">
<title>SharedModule&#45;&gt;TableComponent </title>
<path fill="none" stroke="#000000" stroke-dasharray="5,2" d="M222,-187.1061C222,-187.1061 222,-205.991 222,-205.991"/>
<polygon fill="#000000" stroke="#000000" points="218.5001,-205.9909 222,-215.991 225.5001,-205.991 218.5001,-205.9909"/>
</g>
<!-- TotalPricePipe  -->
<g id="node7" class="node">
<title>TotalPricePipe </title>
<polygon fill="#fb8072" stroke="#000000" points="145.1996,-252 42.8004,-252 42.8004,-216 145.1996,-216 145.1996,-252"/>
<text text-anchor="middle" x="94" y="-229.8" font-family="Times,serif" font-size="14.00" fill="#000000">TotalPricePipe </text>
</g>
<!-- SharedModule&#45;&gt;TotalPricePipe  -->
<g id="edge6" class="edge">
<title>SharedModule&#45;&gt;TotalPricePipe </title>
<path fill="none" stroke="#000000" stroke-dasharray="5,2" d="M172.586,-175C131.844,-175 80.7168,-175 80.7168,-175 80.7168,-175 80.7168,-205.9775 80.7168,-205.9775"/>
<polygon fill="#000000" stroke="#000000" points="77.2169,-205.9774 80.7168,-215.9775 84.2169,-205.9775 77.2169,-205.9774"/>
</g>
</g>
</svg>
