<?xml version="1.0" encoding="UTF-8" standalone="no"?>
<!DOCTYPE svg PUBLIC "-//W3C//DTD SVG 1.1//EN"
 "http://www.w3.org/Graphics/SVG/1.1/DTD/svg11.dtd">
<!-- Generated by graphviz version 2.40.1 (20161225.0304)
 -->
<!-- Title: dependencies Pages: 1 -->
<svg width="3153pt" height="360pt"
 viewBox="0.00 0.00 3153.00 360.00" xmlns="http://www.w3.org/2000/svg" xmlns:xlink="http://www.w3.org/1999/xlink">
<g id="graph0" class="graph" transform="scale(1 1) rotate(0) translate(4 356)">
<title>dependencies</title>
<polygon fill="#ffffff" stroke="transparent" points="-4,4 -4,-356 3149,-356 3149,4 -4,4"/>
<text text-anchor="start" x="1551.5091" y="-42.4" font-family="sans-serif" font-weight="bold" font-size="14.00" fill="#000000">Legend</text>
<polygon fill="#ffffb3" stroke="transparent" points="1338.5,-10 1338.5,-30 1358.5,-30 1358.5,-10 1338.5,-10"/>
<text text-anchor="start" x="1362.129" y="-15.4" font-family="sans-serif" font-size="14.00" fill="#000000"> &#160;Declarations</text>
<polygon fill="#8dd3c7" stroke="transparent" points="1451.5,-10 1451.5,-30 1471.5,-30 1471.5,-10 1451.5,-10"/>
<text text-anchor="start" x="1475.2251" y="-15.4" font-family="sans-serif" font-size="14.00" fill="#000000"> &#160;Module</text>
<polygon fill="#80b1d3" stroke="transparent" points="1537.5,-10 1537.5,-30 1557.5,-30 1557.5,-10 1537.5,-10"/>
<text text-anchor="start" x="1561.2812" y="-15.4" font-family="sans-serif" font-size="14.00" fill="#000000"> &#160;Bootstrap</text>
<polygon fill="#fdb462" stroke="transparent" points="1634.5,-10 1634.5,-30 1654.5,-30 1654.5,-10 1634.5,-10"/>
<text text-anchor="start" x="1658.1732" y="-15.4" font-family="sans-serif" font-size="14.00" fill="#000000"> &#160;Providers</text>
<polygon fill="#fb8072" stroke="transparent" points="1730.5,-10 1730.5,-30 1750.5,-30 1750.5,-10 1730.5,-10"/>
<text text-anchor="start" x="1754.2258" y="-15.4" font-family="sans-serif" font-size="14.00" fill="#000000"> &#160;Exports</text>
<g id="clust1" class="cluster">
<title>cluster_AppModule</title>
<polygon fill="none" stroke="#000000" stroke-dasharray="1,5" points="648,-146 648,-344 1303,-344 1303,-146 648,-146"/>
</g>
<g id="clust2" class="cluster">
<title>cluster_AppModule_declarations</title>
<polygon fill="none" stroke="#000000" points="1173,-154 1173,-206 1295,-206 1295,-154 1173,-154"/>
</g>
<g id="clust4" class="cluster">
<title>cluster_AppModule_imports</title>
<polygon fill="none" stroke="#000000" points="656,-154 656,-206 1165,-206 1165,-154 656,-154"/>
</g>
<g id="clust6" class="cluster">
<title>cluster_AppModule_bootstrap</title>
<polygon fill="none" stroke="#000000" points="902,-284 902,-336 1026,-336 1026,-284 902,-284"/>
</g>
<g id="clust20" class="cluster">
<title>cluster_LoginModule</title>
<polygon fill="none" stroke="#000000" stroke-dasharray="1,5" points="1274,-70 1274,-138 1582,-138 1582,-70 1274,-70"/>
</g>
<g id="clust21" class="cluster">
<title>cluster_LoginModule_declarations</title>
<polygon fill="none" stroke="#000000" points="1444,-78 1444,-130 1574,-130 1574,-78 1444,-78"/>
</g>
<g id="clust23" class="cluster">
<title>cluster_LoginModule_imports</title>
<polygon fill="none" stroke="#000000" points="1282,-78 1282,-130 1436,-130 1436,-78 1282,-78"/>
</g>
<g id="clust33" class="cluster">
<title>cluster_PageNotFoundModule</title>
<polygon fill="none" stroke="#000000" stroke-dasharray="1,5" points="8,-70 8,-138 610,-138 610,-70 8,-70"/>
</g>
<g id="clust34" class="cluster">
<title>cluster_PageNotFoundModule_declarations</title>
<polygon fill="none" stroke="#000000" points="420,-78 420,-130 602,-130 602,-78 420,-78"/>
</g>
<g id="clust36" class="cluster">
<title>cluster_PageNotFoundModule_imports</title>
<polygon fill="none" stroke="#000000" points="208,-78 208,-130 412,-130 412,-78 208,-78"/>
</g>
<g id="clust37" class="cluster">
<title>cluster_PageNotFoundModule_exports</title>
<polygon fill="none" stroke="#000000" points="16,-78 16,-130 200,-130 200,-78 16,-78"/>
</g>
<g id="clust46" class="cluster">
<title>cluster_PrestationModule</title>
<polygon fill="none" stroke="#000000" stroke-dasharray="1,5" points="1590,-70 1590,-206 2263,-206 2263,-70 1590,-70"/>
</g>
<g id="clust47" class="cluster">
<title>cluster_PrestationModule_declarations</title>
<polygon fill="none" stroke="#000000" points="1598,-78 1598,-130 1954,-130 1954,-78 1598,-78"/>
</g>
<g id="clust50" class="cluster">
<title>cluster_PrestationModule_imports</title>
<polygon fill="none" stroke="#000000" points="1962,-78 1962,-130 2255,-130 2255,-78 1962,-78"/>
</g>
<g id="clust60" class="cluster">
<title>cluster_SharedModule</title>
<polygon fill="none" stroke="#000000" stroke-dasharray="1,5" points="2271,-146 2271,-214 3137,-214 3137,-146 2271,-146"/>
</g>
<g id="clust61" class="cluster">
<title>cluster_SharedModule_declarations</title>
<polygon fill="none" stroke="#000000" points="2713,-154 2713,-206 3129,-206 3129,-154 2713,-154"/>
</g>
<g id="clust66" class="cluster">
<title>cluster_SharedModule_exports</title>
<polygon fill="none" stroke="#000000" points="2279,-154 2279,-206 2705,-206 2705,-154 2279,-154"/>
</g>
<g id="clust69" class="cluster">
<title>cluster_UiModule</title>
<polygon fill="none" stroke="#000000" stroke-dasharray="1,5" points="618,-70 618,-138 1266,-138 1266,-70 618,-70"/>
</g>
<g id="clust70" class="cluster">
<title>cluster_UiModule_declarations</title>
<polygon fill="none" stroke="#000000" points="748,-78 748,-130 1258,-130 1258,-78 748,-78"/>
</g>
<g id="clust76" class="cluster">
<title>cluster_UiModule_exports</title>
<polygon fill="none" stroke="#000000" points="626,-78 626,-130 740,-130 740,-78 626,-78"/>
</g>
<!-- AppComponent -->
<g id="node1" class="node">
<title>AppComponent</title>
<polygon fill="#ffffb3" stroke="#000000" points="1286.9399,-198 1181.0601,-198 1181.0601,-162 1286.9399,-162 1286.9399,-198"/>
<text text-anchor="middle" x="1234" y="-175.8" font-family="Times,serif" font-size="14.00" fill="#000000">AppComponent</text>
</g>
<!-- AppModule -->
<g id="node2" class="node">
<title>AppModule</title>
<polygon fill="#8dd3c7" stroke="#000000" points="1005.6571,-263 1002.6571,-267 981.6571,-267 978.6571,-263 922.3429,-263 922.3429,-227 1005.6571,-227 1005.6571,-263"/>
<text text-anchor="middle" x="964" y="-240.8" font-family="Times,serif" font-size="14.00" fill="#000000">AppModule</text>
</g>
<!-- AppComponent&#45;&gt;AppModule -->
<g id="edge1" class="edge">
<title>AppComponent&#45;&gt;AppModule</title>
<path fill="none" stroke="#000000" d="M1234,-198.2843C1234,-219.3211 1234,-251 1234,-251 1234,-251 1015.8913,-251 1015.8913,-251"/>
<polygon fill="#000000" stroke="#000000" points="1015.8913,-247.5001 1005.8913,-251 1015.8912,-254.5001 1015.8913,-247.5001"/>
</g>
<!-- AppComponent  -->
<g id="node7" class="node">
<title>AppComponent </title>
<polygon fill="#80b1d3" stroke="#000000" points="1018.439,-328 909.561,-328 909.561,-292 1018.439,-292 1018.439,-328"/>
<text text-anchor="middle" x="964" y="-305.8" font-family="Times,serif" font-size="14.00" fill="#000000">AppComponent </text>
</g>
<!-- AppModule&#45;&gt;AppComponent  -->
<g id="edge6" class="edge">
<title>AppModule&#45;&gt;AppComponent </title>
<path fill="none" stroke="#000000" stroke-dasharray="1,5" d="M964,-263.1061C964,-263.1061 964,-281.991 964,-281.991"/>
<polygon fill="#000000" stroke="#000000" points="960.5001,-281.9909 964,-291.991 967.5001,-281.991 960.5001,-281.9909"/>
</g>
<!-- AppRoutingModule -->
<g id="node3" class="node">
<title>AppRoutingModule</title>
<polygon fill="#8dd3c7" stroke="#000000" points="1157.2744,-198 1154.2744,-202 1133.2744,-202 1130.2744,-198 1028.7256,-198 1028.7256,-162 1157.2744,-162 1157.2744,-198"/>
<text text-anchor="middle" x="1093" y="-175.8" font-family="Times,serif" font-size="14.00" fill="#000000">AppRoutingModule</text>
</g>
<!-- AppRoutingModule&#45;&gt;AppModule -->
<g id="edge2" class="edge">
<title>AppRoutingModule&#45;&gt;AppModule</title>
<path fill="none" stroke="#000000" d="M1093,-198.0225C1093,-215.3734 1093,-239 1093,-239 1093,-239 1015.8826,-239 1015.8826,-239"/>
<polygon fill="#000000" stroke="#000000" points="1015.8826,-235.5001 1005.8826,-239 1015.8826,-242.5001 1015.8826,-235.5001"/>
</g>
<!-- LoginModule -->
<g id="node4" class="node">
<title>LoginModule</title>
<polygon fill="#8dd3c7" stroke="#000000" points="1010.493,-198 1007.493,-202 986.493,-202 983.493,-198 917.507,-198 917.507,-162 1010.493,-162 1010.493,-198"/>
<text text-anchor="middle" x="964" y="-175.8" font-family="Times,serif" font-size="14.00" fill="#000000">LoginModule</text>
</g>
<!-- LoginModule&#45;&gt;AppModule -->
<g id="edge3" class="edge">
<title>LoginModule&#45;&gt;AppModule</title>
<path fill="none" stroke="#000000" d="M964,-198.1061C964,-198.1061 964,-216.991 964,-216.991"/>
<polygon fill="#000000" stroke="#000000" points="960.5001,-216.9909 964,-226.991 967.5001,-216.991 960.5001,-216.9909"/>
</g>
<!-- PageNotFoundModule -->
<g id="node5" class="node">
<title>PageNotFoundModule</title>
<polygon fill="#8dd3c7" stroke="#000000" points="807.5421,-198 804.5421,-202 783.5421,-202 780.5421,-198 664.4579,-198 664.4579,-162 807.5421,-162 807.5421,-198"/>
<text text-anchor="middle" x="736" y="-175.8" font-family="Times,serif" font-size="14.00" fill="#000000">PageNotFoundModule</text>
</g>
<!-- PageNotFoundModule&#45;&gt;AppModule -->
<g id="edge4" class="edge">
<title>PageNotFoundModule&#45;&gt;AppModule</title>
<path fill="none" stroke="#000000" d="M736,-198.2843C736,-219.3211 736,-251 736,-251 736,-251 912.1813,-251 912.1813,-251"/>
<polygon fill="#000000" stroke="#000000" points="912.1813,-254.5001 922.1813,-251 912.1813,-247.5001 912.1813,-254.5001"/>
</g>
<!-- PageNotFoundComponent  -->
<g id="node12" class="node">
<title>PageNotFoundComponent </title>
<polygon fill="#fb8072" stroke="#000000" points="192.3241,-122 23.6759,-122 23.6759,-86 192.3241,-86 192.3241,-122"/>
<text text-anchor="middle" x="108" y="-99.8" font-family="Times,serif" font-size="14.00" fill="#000000">PageNotFoundComponent </text>
</g>
<!-- PageNotFoundModule&#45;&gt;PageNotFoundComponent  -->
<g id="edge11" class="edge">
<title>PageNotFoundModule&#45;&gt;PageNotFoundComponent </title>
<path fill="none" stroke="#000000" stroke-dasharray="5,2" d="M664.2664,-189C499.4892,-189 108,-189 108,-189 108,-189 108,-132.0263 108,-132.0263"/>
<polygon fill="#000000" stroke="#000000" points="111.5001,-132.0263 108,-122.0263 104.5001,-132.0263 111.5001,-132.0263"/>
</g>
<!-- UiModule -->
<g id="node6" class="node">
<title>UiModule</title>
<polygon fill="#8dd3c7" stroke="#000000" points="899.5484,-198 896.5484,-202 875.5484,-202 872.5484,-198 826.4516,-198 826.4516,-162 899.5484,-162 899.5484,-198"/>
<text text-anchor="middle" x="863" y="-175.8" font-family="Times,serif" font-size="14.00" fill="#000000">UiModule</text>
</g>
<!-- UiModule&#45;&gt;AppModule -->
<g id="edge5" class="edge">
<title>UiModule&#45;&gt;AppModule</title>
<path fill="none" stroke="#000000" d="M863,-198.0225C863,-215.3734 863,-239 863,-239 863,-239 912.3363,-239 912.3363,-239"/>
<polygon fill="#000000" stroke="#000000" points="912.3364,-242.5001 922.3363,-239 912.3363,-235.5001 912.3364,-242.5001"/>
</g>
<!-- UiComponent  -->
<g id="node28" class="node">
<title>UiComponent </title>
<polygon fill="#fb8072" stroke="#000000" points="732.3297,-122 633.6703,-122 633.6703,-86 732.3297,-86 732.3297,-122"/>
<text text-anchor="middle" x="683" y="-99.8" font-family="Times,serif" font-size="14.00" fill="#000000">UiComponent </text>
</g>
<!-- UiModule&#45;&gt;UiComponent  -->
<g id="edge26" class="edge">
<title>UiModule&#45;&gt;UiComponent </title>
<path fill="none" stroke="#000000" stroke-dasharray="5,2" d="M834.7059,-161.8097C834.7059,-158.4624 834.7059,-156 834.7059,-156 834.7059,-156 698.3221,-156 698.3221,-156 698.3221,-156 698.3221,-132.1871 698.3221,-132.1871"/>
<polygon fill="#000000" stroke="#000000" points="701.8221,-132.187 698.3221,-122.1871 694.8221,-132.1871 701.8221,-132.187"/>
</g>
<!-- LoginComponent -->
<g id="node8" class="node">
<title>LoginComponent</title>
<polygon fill="#ffffb3" stroke="#000000" points="1566.2758,-122 1451.7242,-122 1451.7242,-86 1566.2758,-86 1566.2758,-122"/>
<text text-anchor="middle" x="1509" y="-99.8" font-family="Times,serif" font-size="14.00" fill="#000000">LoginComponent</text>
</g>
<!-- LoginComponent&#45;&gt;LoginModule -->
<g id="edge7" class="edge">
<title>LoginComponent&#45;&gt;LoginModule</title>
<path fill="none" stroke="#000000" d="M1509,-122.0439C1509,-134.5633 1509,-149 1509,-149 1509,-149 1005.9045,-149 1005.9045,-149 1005.9045,-149 1005.9045,-151.9672 1005.9045,-151.9672"/>
<polygon fill="#000000" stroke="#000000" points="1002.4045,-151.9671 1005.9045,-161.9672 1009.4045,-151.9672 1002.4045,-151.9671"/>
</g>
<!-- LoginRoutingModule -->
<g id="node9" class="node">
<title>LoginRoutingModule</title>
<polygon fill="#8dd3c7" stroke="#000000" points="1428.1108,-122 1425.1108,-126 1404.1108,-126 1401.1108,-122 1289.8892,-122 1289.8892,-86 1428.1108,-86 1428.1108,-122"/>
<text text-anchor="middle" x="1359" y="-99.8" font-family="Times,serif" font-size="14.00" fill="#000000">LoginRoutingModule</text>
</g>
<!-- LoginRoutingModule&#45;&gt;LoginModule -->
<g id="edge8" class="edge">
<title>LoginRoutingModule&#45;&gt;LoginModule</title>
<path fill="none" stroke="#000000" d="M1359,-122.1097C1359,-131.897 1359,-142 1359,-142 1359,-142 1001.3124,-142 1001.3124,-142 1001.3124,-142 1001.3124,-151.8903 1001.3124,-151.8903"/>
<polygon fill="#000000" stroke="#000000" points="997.8125,-151.8903 1001.3124,-161.8903 1004.8125,-151.8904 997.8125,-151.8903"/>
</g>
<!-- PageNotFoundComponent -->
<g id="node10" class="node">
<title>PageNotFoundComponent</title>
<polygon fill="#ffffb3" stroke="#000000" points="593.8243,-122 428.1757,-122 428.1757,-86 593.8243,-86 593.8243,-122"/>
<text text-anchor="middle" x="511" y="-99.8" font-family="Times,serif" font-size="14.00" fill="#000000">PageNotFoundComponent</text>
</g>
<!-- PageNotFoundComponent&#45;&gt;PageNotFoundModule -->
<g id="edge9" class="edge">
<title>PageNotFoundComponent&#45;&gt;PageNotFoundModule</title>
<path fill="none" stroke="#000000" d="M511,-122.308C511,-142.1455 511,-171 511,-171 511,-171 654.19,-171 654.19,-171"/>
<polygon fill="#000000" stroke="#000000" points="654.19,-174.5001 664.19,-171 654.1899,-167.5001 654.19,-174.5001"/>
</g>
<!-- PageNotFoundRoutingModule -->
<g id="node11" class="node">
<title>PageNotFoundRoutingModule</title>
<polygon fill="#8dd3c7" stroke="#000000" points="404.1595,-122 401.1595,-126 380.1595,-126 377.1595,-122 215.8405,-122 215.8405,-86 404.1595,-86 404.1595,-122"/>
<text text-anchor="middle" x="310" y="-99.8" font-family="Times,serif" font-size="14.00" fill="#000000">PageNotFoundRoutingModule</text>
</g>
<!-- PageNotFoundRoutingModule&#45;&gt;PageNotFoundModule -->
<g id="edge10" class="edge">
<title>PageNotFoundRoutingModule&#45;&gt;PageNotFoundModule</title>
<path fill="none" stroke="#000000" d="M310,-122.0109C310,-144.4852 310,-180 310,-180 310,-180 654.2166,-180 654.2166,-180"/>
<polygon fill="#000000" stroke="#000000" points="654.2167,-183.5001 664.2166,-180 654.2166,-176.5001 654.2167,-183.5001"/>
</g>
<!-- PrestationItemComponent -->
<g id="node13" class="node">
<title>PrestationItemComponent</title>
<polygon fill="#ffffb3" stroke="#000000" points="1946.4776,-122 1783.5224,-122 1783.5224,-86 1946.4776,-86 1946.4776,-122"/>
<text text-anchor="middle" x="1865" y="-99.8" font-family="Times,serif" font-size="14.00" fill="#000000">PrestationItemComponent</text>
</g>
<!-- PrestationModule -->
<g id="node15" class="node">
<title>PrestationModule</title>
<polygon fill="#8dd3c7" stroke="#000000" points="2014.5395,-198 2011.5395,-202 1990.5395,-202 1987.5395,-198 1899.4605,-198 1899.4605,-162 2014.5395,-162 2014.5395,-198"/>
<text text-anchor="middle" x="1957" y="-175.8" font-family="Times,serif" font-size="14.00" fill="#000000">PrestationModule</text>
</g>
<!-- PrestationItemComponent&#45;&gt;PrestationModule -->
<g id="edge12" class="edge">
<title>PrestationItemComponent&#45;&gt;PrestationModule</title>
<path fill="none" stroke="#000000" d="M1922.8598,-122.0109C1922.8598,-122.0109 1922.8598,-151.855 1922.8598,-151.855"/>
<polygon fill="#000000" stroke="#000000" points="1919.3598,-151.8549 1922.8598,-161.855 1926.3598,-151.855 1919.3598,-151.8549"/>
</g>
<!-- PrestationListComponent -->
<g id="node14" class="node">
<title>PrestationListComponent</title>
<polygon fill="#ffffb3" stroke="#000000" points="1765.5996,-122 1606.4004,-122 1606.4004,-86 1765.5996,-86 1765.5996,-122"/>
<text text-anchor="middle" x="1686" y="-99.8" font-family="Times,serif" font-size="14.00" fill="#000000">PrestationListComponent</text>
</g>
<!-- PrestationListComponent&#45;&gt;PrestationModule -->
<g id="edge13" class="edge">
<title>PrestationListComponent&#45;&gt;PrestationModule</title>
<path fill="none" stroke="#000000" d="M1686,-122.0109C1686,-144.4852 1686,-180 1686,-180 1686,-180 1889.1961,-180 1889.1961,-180"/>
<polygon fill="#000000" stroke="#000000" points="1889.1961,-183.5001 1899.1961,-180 1889.1961,-176.5001 1889.1961,-183.5001"/>
</g>
<!-- PrestationRoutingModule -->
<g id="node16" class="node">
<title>PrestationRoutingModule</title>
<polygon fill="#8dd3c7" stroke="#000000" points="2130.1568,-122 2127.1568,-126 2106.1568,-126 2103.1568,-122 1969.8432,-122 1969.8432,-86 2130.1568,-86 2130.1568,-122"/>
<text text-anchor="middle" x="2050" y="-99.8" font-family="Times,serif" font-size="14.00" fill="#000000">PrestationRoutingModule</text>
</g>
<!-- PrestationRoutingModule&#45;&gt;PrestationModule -->
<g id="edge14" class="edge">
<title>PrestationRoutingModule&#45;&gt;PrestationModule</title>
<path fill="none" stroke="#000000" d="M1992.2206,-122.0109C1992.2206,-122.0109 1992.2206,-151.855 1992.2206,-151.855"/>
<polygon fill="#000000" stroke="#000000" points="1988.7206,-151.8549 1992.2206,-161.855 1995.7206,-151.855 1988.7206,-151.8549"/>
</g>
<!-- SharedModule -->
<g id="node17" class="node">
<title>SharedModule</title>
<polygon fill="#8dd3c7" stroke="#000000" points="2247.4231,-122 2244.4231,-126 2223.4231,-126 2220.4231,-122 2148.5769,-122 2148.5769,-86 2247.4231,-86 2247.4231,-122"/>
<text text-anchor="middle" x="2198" y="-99.8" font-family="Times,serif" font-size="14.00" fill="#000000">SharedModule</text>
</g>
<!-- SharedModule&#45;&gt;PrestationModule -->
<g id="edge15" class="edge">
<title>SharedModule&#45;&gt;PrestationModule</title>
<path fill="none" stroke="#000000" d="M2181.5963,-122.0267C2181.5963,-142.7672 2181.5963,-174 2181.5963,-174 2181.5963,-174 2024.5475,-174 2024.5475,-174"/>
<polygon fill="#000000" stroke="#000000" points="2024.5475,-170.5001 2014.5475,-174 2024.5474,-177.5001 2024.5475,-170.5001"/>
</g>
<!-- TableButtonComponent  -->
<g id="node21" class="node">
<title>TableButtonComponent </title>
<polygon fill="#fb8072" stroke="#000000" points="2697.3227,-198 2542.6773,-198 2542.6773,-162 2697.3227,-162 2697.3227,-198"/>
<text text-anchor="middle" x="2620" y="-175.8" font-family="Times,serif" font-size="14.00" fill="#000000">TableButtonComponent </text>
</g>
<!-- SharedModule&#45;&gt;TableButtonComponent  -->
<g id="edge19" class="edge">
<title>SharedModule&#45;&gt;TableButtonComponent </title>
<path fill="none" stroke="#000000" stroke-dasharray="5,2" d="M2247.2347,-110C2358.5536,-110 2620,-110 2620,-110 2620,-110 2620,-151.9733 2620,-151.9733"/>
<polygon fill="#000000" stroke="#000000" points="2616.5001,-151.9732 2620,-161.9733 2623.5001,-151.9733 2616.5001,-151.9732"/>
</g>
<!-- TableComponent  -->
<g id="node22" class="node">
<title>TableComponent </title>
<polygon fill="#fb8072" stroke="#000000" points="2524.2052,-198 2407.7948,-198 2407.7948,-162 2524.2052,-162 2524.2052,-198"/>
<text text-anchor="middle" x="2466" y="-175.8" font-family="Times,serif" font-size="14.00" fill="#000000">TableComponent </text>
</g>
<!-- SharedModule&#45;&gt;TableComponent  -->
<g id="edge20" class="edge">
<title>SharedModule&#45;&gt;TableComponent </title>
<path fill="none" stroke="#000000" stroke-dasharray="5,2" d="M2247.4677,-116C2324.9047,-116 2466,-116 2466,-116 2466,-116 2466,-151.8314 2466,-151.8314"/>
<polygon fill="#000000" stroke="#000000" points="2462.5001,-151.8313 2466,-161.8314 2469.5001,-151.8314 2462.5001,-151.8313"/>
</g>
<!-- TotalPricePipe  -->
<g id="node23" class="node">
<title>TotalPricePipe </title>
<polygon fill="#fb8072" stroke="#000000" points="2389.1996,-198 2286.8004,-198 2286.8004,-162 2389.1996,-162 2389.1996,-198"/>
<text text-anchor="middle" x="2338" y="-175.8" font-family="Times,serif" font-size="14.00" fill="#000000">TotalPricePipe </text>
</g>
<!-- SharedModule&#45;&gt;TotalPricePipe  -->
<g id="edge21" class="edge">
<title>SharedModule&#45;&gt;TotalPricePipe </title>
<path fill="none" stroke="#000000" stroke-dasharray="5,2" d="M2214.4037,-122.1985C2214.4037,-146.3563 2214.4037,-186 2214.4037,-186 2214.4037,-186 2276.6578,-186 2276.6578,-186"/>
<polygon fill="#000000" stroke="#000000" points="2276.6578,-189.5001 2286.6578,-186 2276.6578,-182.5001 2276.6578,-189.5001"/>
</g>
<!-- TableButtonComponent -->
<g id="node18" class="node">
<title>TableButtonComponent</title>
<polygon fill="#ffffb3" stroke="#000000" points="3120.8229,-198 2969.1771,-198 2969.1771,-162 3120.8229,-162 3120.8229,-198"/>
<text text-anchor="middle" x="3045" y="-175.8" font-family="Times,serif" font-size="14.00" fill="#000000">TableButtonComponent</text>
</g>
<!-- TableButtonComponent&#45;&gt;SharedModule -->
<g id="edge16" class="edge">
<title>TableButtonComponent&#45;&gt;SharedModule</title>
<path fill="none" stroke="#000000" d="M3045,-161.7663C3045,-135.9906 3045,-92 3045,-92 3045,-92 2257.51,-92 2257.51,-92"/>
<polygon fill="#000000" stroke="#000000" points="2257.5101,-88.5001 2247.51,-92 2257.51,-95.5001 2257.5101,-88.5001"/>
</g>
<!-- TableComponent -->
<g id="node19" class="node">
<title>TableComponent</title>
<polygon fill="#ffffb3" stroke="#000000" points="2951.705,-198 2838.295,-198 2838.295,-162 2951.705,-162 2951.705,-198"/>
<text text-anchor="middle" x="2895" y="-175.8" font-family="Times,serif" font-size="14.00" fill="#000000">TableComponent</text>
</g>
<!-- TableComponent&#45;&gt;SharedModule -->
<g id="edge17" class="edge">
<title>TableComponent&#45;&gt;SharedModule</title>
<path fill="none" stroke="#000000" d="M2895,-161.8015C2895,-137.6437 2895,-98 2895,-98 2895,-98 2257.2894,-98 2257.2894,-98"/>
<polygon fill="#000000" stroke="#000000" points="2257.2894,-94.5001 2247.2894,-98 2257.2894,-101.5001 2257.2894,-94.5001"/>
</g>
<!-- TotalPricePipe -->
<g id="node20" class="node">
<title>TotalPricePipe</title>
<polygon fill="#ffffb3" stroke="#000000" points="2820.6994,-198 2721.3006,-198 2721.3006,-162 2820.6994,-162 2820.6994,-198"/>
<text text-anchor="middle" x="2771" y="-175.8" font-family="Times,serif" font-size="14.00" fill="#000000">TotalPricePipe</text>
</g>
<!-- TotalPricePipe&#45;&gt;SharedModule -->
<g id="edge18" class="edge">
<title>TotalPricePipe&#45;&gt;SharedModule</title>
<path fill="none" stroke="#000000" d="M2771,-161.9891C2771,-139.5148 2771,-104 2771,-104 2771,-104 2257.3496,-104 2257.3496,-104"/>
<polygon fill="#000000" stroke="#000000" points="2257.3496,-100.5001 2247.3496,-104 2257.3496,-107.5001 2257.3496,-100.5001"/>
</g>
<!-- FooterComponent -->
<g id="node24" class="node">
<title>FooterComponent</title>
<polygon fill="#ffffb3" stroke="#000000" points="1249.8809,-122 1132.1191,-122 1132.1191,-86 1249.8809,-86 1249.8809,-122"/>
<text text-anchor="middle" x="1191" y="-99.8" font-family="Times,serif" font-size="14.00" fill="#000000">FooterComponent</text>
</g>
<!-- FooterComponent&#45;&gt;UiModule -->
<g id="edge22" class="edge">
<title>FooterComponent&#45;&gt;UiModule</title>
<path fill="none" stroke="#000000" d="M1144.7234,-122.2434C1144.7234,-129.4297 1144.7234,-136 1144.7234,-136 1144.7234,-136 892.2484,-136 892.2484,-136 892.2484,-136 892.2484,-151.8495 892.2484,-151.8495"/>
<polygon fill="#000000" stroke="#000000" points="888.7485,-151.8494 892.2484,-161.8495 895.7485,-151.8495 888.7485,-151.8494"/>
</g>
<!-- HeaderComponent -->
<g id="node25" class="node">
<title>HeaderComponent</title>
<polygon fill="#ffffb3" stroke="#000000" points="1113.7437,-122 992.2563,-122 992.2563,-86 1113.7437,-86 1113.7437,-122"/>
<text text-anchor="middle" x="1053" y="-99.8" font-family="Times,serif" font-size="14.00" fill="#000000">HeaderComponent</text>
</g>
<!-- HeaderComponent&#45;&gt;UiModule -->
<g id="edge23" class="edge">
<title>HeaderComponent&#45;&gt;UiModule</title>
<path fill="none" stroke="#000000" d="M996.7204,-122.1686C996.7204,-126.0459 996.7204,-129 996.7204,-129 996.7204,-129 884.7234,-129 884.7234,-129 884.7234,-129 884.7234,-151.8757 884.7234,-151.8757"/>
<polygon fill="#000000" stroke="#000000" points="881.2234,-151.8757 884.7234,-161.8757 888.2234,-151.8757 881.2234,-151.8757"/>
</g>
<!-- NavComponent -->
<g id="node26" class="node">
<title>NavComponent</title>
<polygon fill="#ffffb3" stroke="#000000" points="974.1542,-122 869.8458,-122 869.8458,-86 974.1542,-86 974.1542,-122"/>
<text text-anchor="middle" x="922" y="-99.8" font-family="Times,serif" font-size="14.00" fill="#000000">NavComponent</text>
</g>
<!-- NavComponent&#45;&gt;UiModule -->
<g id="edge24" class="edge">
<title>NavComponent&#45;&gt;UiModule</title>
<path fill="none" stroke="#000000" d="M877.1983,-122.0109C877.1983,-122.0109 877.1983,-151.855 877.1983,-151.855"/>
<polygon fill="#000000" stroke="#000000" points="873.6984,-151.8549 877.1983,-161.855 880.6984,-151.855 873.6984,-151.8549"/>
</g>
<!-- UiComponent -->
<g id="node27" class="node">
<title>UiComponent</title>
<polygon fill="#ffffb3" stroke="#000000" points="851.8302,-122 756.1698,-122 756.1698,-86 851.8302,-86 851.8302,-122"/>
<text text-anchor="middle" x="804" y="-99.8" font-family="Times,serif" font-size="14.00" fill="#000000">UiComponent</text>
</g>
<!-- UiComponent&#45;&gt;UiModule -->
<g id="edge25" class="edge">
<title>UiComponent&#45;&gt;UiModule</title>
<path fill="none" stroke="#000000" d="M843.1854,-122.0109C843.1854,-122.0109 843.1854,-151.855 843.1854,-151.855"/>
<polygon fill="#000000" stroke="#000000" points="839.6855,-151.8549 843.1854,-161.855 846.6855,-151.855 839.6855,-151.8549"/>
</g>
</g>
</svg>
